<svg xmlns="http://www.w3.org/2000/svg" xmlns:xlink="http://www.w3.org/1999/xlink" viewBox="0 0 511.91 99.44"><defs><linearGradient id="a" x1="13.98" y1="32.82" x2="69.72" y2="73.32" gradientUnits="userSpaceOnUse"><stop offset="0" stop-color="#ab78a8"/><stop offset="1" stop-color="#ce968b"/></linearGradient><linearGradient id="b" x1="21.19" y1="90.96" x2="54.74" y2="90.96" gradientUnits="userSpaceOnUse"><stop offset="0" stop-color="#8370af"/><stop offset="1" stop-color="#5a4597"/></linearGradient><linearGradient id="c" x1="4.67" y1="79.69" x2="4.67" y2="48.85" xlink:href="#a"/><linearGradient id="d" x1="38.47" y1="86.83" x2="66.97" y2="86.83" gradientUnits="userSpaceOnUse"><stop offset="0" stop-color="#6b4596"/><stop offset="1" stop-color="#4b2660"/></linearGradient><linearGradient id="e" x1="42.81" y1="77.99" x2="59.55" y2="77.99" xlink:href="#b"/><linearGradient id="f" x1="22.92" y1="61.42" x2="1.12" y2="61.42" gradientUnits="userSpaceOnUse"><stop offset="0" stop-color="#682f86"/><stop offset="1" stop-color="#a28bba"/></linearGradient><linearGradient id="g" y1="89.56" x2="38.47" y2="89.56" gradientUnits="userSpaceOnUse"><stop offset="0" stop-color="#c79090"/><stop offset="1" stop-color="#4b2660"/></linearGradient><linearGradient id="h" x1="0" y1="76.68" x2="21.19" y2="76.68" xlink:href="#b"/><linearGradient id="i" x1="21.19" y1="90.96" x2="42.81" y2="90.96" xlink:href="#b"/><linearGradient id="j" x1="9.35" y1="71.7" x2="47.83" y2="71.7" gradientUnits="userSpaceOnUse"><stop offset="0" stop-color="#a28bba"/><stop offset="0.55" stop-color="#a28bba"/><stop offset="1" stop-color="#b5819f"/></linearGradient><linearGradient id="k" x1="74.22" y1="29.53" x2="57.21" y2="29.53" xlink:href="#j"/><linearGradient id="l" x1="29.03" y1="43.11" x2="20.5" y2="6.2" xlink:href="#a"/><linearGradient id="m" x1="47.38" y1="14.13" x2="62.83" y2="14.13" xlink:href="#f"/><linearGradient id="n" x1="63.5" y1="56.5" x2="74.22" y2="56.5" xlink:href="#f"/><linearGradient id="o" x1="57.18" y1="49.64" x2="74.22" y2="49.64" xlink:href="#a"/><linearGradient id="p" x1="2.04" y1="49.4" x2="12.87" y2="49.4" xlink:href="#a"/><linearGradient id="q" x1="59.55" y1="70.64" x2="66.97" y2="70.64" xlink:href="#b"/><linearGradient id="r" x1="33.05" y1="0.25" x2="33.85" y2="46.48" gradientUnits="userSpaceOnUse"><stop offset="0" stop-color="#8370af"/><stop offset="0.49" stop-color="#5a4597"/><stop offset="0.82" stop-color="#352b64"/><stop offset="1" stop-color="#16172d"/></linearGradient><linearGradient id="s" x1="21.85" y1="15.34" x2="40.99" y2="47.21" xlink:href="#r"/><linearGradient id="t" x1="16.89" y1="41.25" x2="32.39" y2="52.51" gradientUnits="userSpaceOnUse"><stop offset="0" stop-color="#7c5499"/><stop offset="1" stop-color="#a18ab9" stop-opacity="0"/></linearGradient><linearGradient id="u" x1="51.84" y1="54.24" x2="65.2" y2="58.85" xlink:href="#a"/><linearGradient id="v" x1="61.85" y1="29.74" x2="54.45" y2="28.96" xlink:href="#j"/><linearGradient id="w" x1="48.73" y1="41.05" x2="47.67" y2="28.86" xlink:href="#a"/><linearGradient id="x" x1="22.92" y1="53.86" x2="57.18" y2="53.86" xlink:href="#a"/><linearGradient id="y" x1="38.72" y1="58.06" x2="38.72" gradientUnits="userSpaceOnUse"><stop offset="0" stop-color="#ab78a8" stop-opacity="0.2"/><stop offset="1" stop-color="#ce968b" stop-opacity="0.4"/></linearGradient><linearGradient id="z" x1="21.58" y1="54.03" x2="50.37" y2="74.94" gradientUnits="userSpaceOnUse"><stop offset="0" stop-color="#a18ab9" stop-opacity="0"/><stop offset="1" stop-color="#7c5499"/></linearGradient></defs><title>logo</title><polygon points="73.98 35.55 47.36 0.35 2.26 48.94 0.23 79.56 38.44 99.17 66.77 77.38 73.98 35.55" fill="url(#a)"/><polygon points="21.19 82.49 38.47 99.44 54.73 86.92 21.19 82.49" fill="url(#b)"/><polygon points="1.12 62.8 9.1 51.96 2.04 48.85 0 79.69 9.35 70.87 1.12 62.8" fill="url(#c)"/><polygon points="54.73 86.92 42.81 85.34 38.47 99.44 66.97 77.5 59.55 74.23 54.73 86.92" fill="url(#d)"/><polygon points="42.81 85.34 54.73 86.92 59.55 74.23 47.83 69.06 42.81 85.34" fill="url(#e)"/><polygon points="9.1 51.96 1.12 62.8 9.35 70.87 22.93 58.06 9.1 51.96" fill="url(#f)"/><polygon points="0 79.69 38.47 99.44 21.19 82.49 0 79.69" fill="url(#g)"/><polygon points="62.83 20.43 62.83 20.43 62.83 20.43 62.83 20.43" fill="#32338e"/><polygon points="9.35 70.87 0 79.69 21.19 82.49 9.35 70.87" fill="url(#h)"/><polygon points="21.19 82.49 38.47 99.44 42.81 85.34 21.19 82.49" fill="url(#i)"/><polygon points="22.93 58.06 9.35 70.87 21.19 82.49 42.81 85.34 47.83 69.06 22.93 58.06" fill="url(#j)"/><polygon points="74.22 35.5 62.83 20.43 57.21 38.64 74.22 35.5" fill="url(#k)"/><polygon points="47.38 0 2.04 48.85 12.87 46.84 47.38 0" fill="url(#l)"/><polygon points="62.83 20.43 47.38 0 54.52 28.26 62.83 20.43" fill="url(#m)"/><polygon points="63.5 63.78 66.97 77.5 74.22 35.5 63.5 63.78" fill="url(#n)"/><polygon points="57.17 38.75 63.5 63.78 74.22 35.5 57.21 38.64 57.17 38.75" fill="url(#o)"/><polygon points="12.87 46.84 2.04 48.85 9.1 51.96 12.87 46.84" fill="url(#p)"/><polygon points="59.55 74.23 66.97 77.5 63.5 63.78 59.55 74.23" fill="url(#q)"/><polygon points="40.17 41.8 54.52 28.26 47.38 0 12.87 46.84 40.17 41.8" fill="url(#r)"/><polygon points="47.38 0 12.87 46.84 9.1 51.96 22.93 58.06 40.17 41.8 54.52 28.26 47.38 0" fill="url(#s)"/><polygon points="40.17 41.8 12.87 46.84 9.1 51.96 22.93 58.06 40.17 41.8" fill="url(#t)"/><polygon points="47.83 69.06 59.55 74.23 63.5 63.78 57.17 38.75 47.83 69.06" fill="url(#u)"/><polygon points="57.15 38.65 57.21 38.64 62.83 20.43 62.83 20.43 54.52 28.26 57.15 38.65" fill="url(#v)"/><polygon points="57.21 38.64 57.15 38.65 57.17 38.75 57.21 38.64" fill="#32338e"/><polygon points="57.21 38.64 57.15 38.65 57.17 38.75 57.21 38.64" fill="#32338e"/><polygon points="57.21 38.64 57.15 38.65 57.17 38.75 57.21 38.64" fill="#fff"/><polygon points="54.52 28.26 40.17 41.8 57.15 38.65 54.52 28.26" fill="url(#w)"/><polygon points="47.83 69.06 57.17 38.75 57.15 38.65 40.17 41.8 22.93 58.06 47.83 69.06" fill="url(#x)"/><polygon points="22.93 58.06 47.38 0 54.52 28.26 22.93 58.06" fill="url(#y)"/><polygon points="42.81 85.34 40.17 41.8 9.35 70.87 42.81 85.34" fill="url(#z)"/><path d="M121.17,39h6.68V67.11h-6.57L120.94,63c-1.6,3.31-6,4.91-9.14,5-8.33.06-14.5-5.08-14.5-15,0-9.7,6.45-14.78,14.68-14.73,3.76,0,7.36,1.77,9,4.57Zm-16.9,14c0,5.37,3.71,8.57,8.33,8.57,11,0,11-17.07,0-17.07C108,44.5,104.27,47.64,104.27,53Z" fill="#fff"/><path d="M152.46,67.11V52c0-3.71-1.94-7.08-5.77-7.08s-6,3.37-6,7.08V67.11h-7V38.9h6.45l.52,3.43c1.48-2.86,4.74-3.89,7.42-3.89,3.37,0,6.74,1.37,8.34,5.26a10.18,10.18,0,0,1,9.42-5.14c8,0,11.93,4.91,11.93,13.36V67.11h-7V51.92c0-3.71-1.55-6.85-5.31-6.85s-6.11,3.25-6.11,7V67.11Z" fill="#fff"/><path d="M188.83,55.52c.46,3.48,3.49,6,8.4,6,2.57,0,5.94-1,7.54-2.62l4.45,4.39c-3,3.09-7.82,4.57-12.11,4.57-9.7,0-15.47-6-15.47-15,0-8.56,5.82-14.73,15-14.73,9.42,0,15.3,5.83,14.22,17.42Zm15.31-5.77c-.46-3.66-3.31-5.48-7.31-5.48-3.77,0-6.85,1.82-7.88,5.48Z" fill="#fff"/><path d="M223.67,31v8h7.76v6h-7.82V57.17c0,2.69,1.48,4,3.65,4a7.87,7.87,0,0,0,3.37-.86l1.94,5.94a15.55,15.55,0,0,1-5.76,1.2c-6.11.23-10.11-3.25-10.11-10.28V45h-5.25V39h5.25V31.76Z" fill="#fff"/><path d="M242.45,27.14V42.78a10.42,10.42,0,0,1,8.8-4.22c8,0,11.53,5.42,11.53,13.7V67.11h-7V52.32c0-5.14-2.68-7.31-6.39-7.31-4.11,0-7,3.48-7,7.71V67.11h-7v-40Z" fill="#fff"/><path d="M294.7,39,277.51,78.87h-7.65l5.26-12.22L263.87,39H272l4.29,12.16,2.68,7.94,2.91-7.77L287,39Z" fill="#fff"/><path d="M315.6,46.44a9.47,9.47,0,0,0-7-2.51c-3.31,0-5.14,1-5.14,2.79s1.66,2.86,5.26,3.09c5.31.34,12.05,1.54,12.05,9,0,5-4.06,9.25-12.11,9.25-4.45,0-8.91-.74-13-5l3.43-5c2,2.22,6.56,3.88,9.7,3.94,2.63,0,5.09-1.32,5.09-3.37s-1.6-2.74-5.6-3c-5.31-.4-11.65-2.34-11.65-8.74s6.74-8.79,11.88-8.79c4.4,0,7.71.85,11,3.71Z" fill="#fff"/><path d="M333.93,31v8h7.76v6h-7.82V57.17c0,2.69,1.49,4,3.66,4a7.91,7.91,0,0,0,3.37-.86l1.94,5.94a15.64,15.64,0,0,1-5.77,1.2C331,67.68,327,64.2,327,57.17V45h-5.25V39H327V31.76Z" fill="#fff"/><path d="M363,38.84V73.1c0,7-3,11.48-9.36,11.48a11.27,11.27,0,0,1-6.22-1.88l2.51-5.43a7,7,0,0,0,3.37.8c2.28-.11,2.8-1.88,2.8-5V38.84ZM355.46,31c0,5.43,8.22,5.43,8.22,0S355.46,25.54,355.46,31Z" fill="#fff"/><path d="M373.73,55.52c.46,3.48,3.48,6,8.39,6,2.57,0,5.94-1,7.54-2.62l4.45,4.39c-3,3.09-7.82,4.57-12.1,4.57-9.71,0-15.47-6-15.47-15,0-8.56,5.82-14.73,15-14.73,9.42,0,15.3,5.83,14.21,17.42ZM389,49.75c-.45-3.66-3.31-5.48-7.31-5.48-3.76,0-6.85,1.82-7.88,5.48Z" fill="#fff"/><path d="M408.56,31v8h7.77v6h-7.82V57.17c0,2.69,1.48,4,3.65,4a7.91,7.91,0,0,0,3.37-.86l1.94,5.94a15.6,15.6,0,0,1-5.77,1.2c-6.11.23-10.1-3.25-10.1-10.28V45h-5.26V39h5.26V31.76Z" fill="#fff"/><path d="M442.52,41.31a2.53,2.53,0,0,0-2.08-1c-1.23,0-1.82.51-1.82,1.16s.9,1,2,1.1c1.82.23,3.52.7,3.52,2.79s-1.72,2.79-3.67,2.79c-1.79,0-3.17-.55-3.82-2.15l1.38-.71a2.49,2.49,0,0,0,2.46,1.39c1,0,2-.37,2-1.32s-.86-1.16-2-1.29c-1.79-.21-3.44-.68-3.44-2.65,0-1.8,1.77-2.54,3.39-2.55a3.54,3.54,0,0,1,3.44,1.74Z" fill="#fff"/><path d="M454.43,43.63a4.5,4.5,0,1,1-9,0,4.5,4.5,0,1,1,9,0Zm-7.37,0a2.88,2.88,0,1,0,5.75,0,2.89,2.89,0,1,0-5.75,0Z" fill="#fff"/><path d="M457.74,39.2v7.23h4.51V48h-6.16V39.2Z" fill="#fff"/><path d="M471,39.21v5a3.56,3.56,0,0,1-3.79,3.92,3.66,3.66,0,0,1-3.89-3.92v-5H465v5a2.14,2.14,0,0,0,2.26,2.41c1.36,0,2.14-.91,2.14-2.41v-5Z" fill="#fff"/><path d="M475.35,40.7h-2.77V39.2h7.2v1.5H477V48h-1.65Z" fill="#fff"/><path d="M481.24,48V39.2h1.64V48Z" fill="#fff"/><path d="M493.75,43.63a4.5,4.5,0,1,1-9,0,4.5,4.5,0,1,1,9,0Zm-7.37,0a2.88,2.88,0,1,0,5.75,0,2.89,2.89,0,1,0-5.75,0Z" fill="#fff"/><path d="M501.17,39.19h1.65V48h-1l-4.6-5.92V48h-1.65V39.2h1.33l4.3,5.43Z" fill="#fff"/><path d="M510.32,41.31a2.52,2.52,0,0,0-2.08-1c-1.22,0-1.81.51-1.81,1.16s.9,1,1.95,1.1c1.83.23,3.53.7,3.53,2.79s-1.73,2.79-3.68,2.79c-1.79,0-3.16-.55-3.81-2.15l1.37-.71a2.51,2.51,0,0,0,2.47,1.39c1,0,2-.37,2-1.32s-.86-1.16-2-1.29c-1.79-.21-3.44-.68-3.44-2.65,0-1.8,1.78-2.54,3.39-2.55a3.53,3.53,0,0,1,3.44,1.74Z" fill="#fff"/><path d="M436.61,65.12h1.31V59.26h-1.36v-1.5h3v7.36h1.22v1.4h-4.17Z" fill="#fff"/><path d="M447.38,63.8V62.49a2.6,2.6,0,0,1-2,.93c-1.76,0-3.61-.74-3.61-2.92,0-1.94,1.86-2.9,3.62-2.9s3.66,1,3.66,2.93v3.26c0,1.95-1.8,2.87-3.6,2.87s-3.65-.75-3.65-2.59h1.66c0,.77,1,1.16,2,1.16s2-.52,2-1.48Zm-4-3.3c0,1,.87,1.48,2,1.48s2-.5,2-1.48-.94-1.42-2-1.42S443.38,59.54,443.38,60.5Z" fill="#fff"/><path d="M450.32,60.3c0-1.85,1.76-2.65,3.37-2.65s3.66.71,3.66,2.79c0,2.23-1.68,2.65-3.52,2.65-.72,0-1.9.19-1.9,1.14V65h5.44v1.54h-7.09v-2.3c0-2,1.82-2.62,3.55-2.62.66,0,1.88-.11,1.88-1.12s-.87-1.4-2-1.4c-.86,0-1.75.43-1.77,1.22Z" fill="#fff"/><path d="M458.56,66.52l3.58-7.18h-4.27V57.76h6.43l.09.88-3.93,7.88Z" fill="#fff"/><path d="M469.54,57.76V65H474v1.53h-6.15V57.76Z" fill="#fff"/><path d="M476.17,59.26h-2.78v-1.5h7.21v1.5h-2.78v7.26h-1.65Z" fill="#fff"/><path d="M489.3,62.07a4.14,4.14,0,0,1-4.38,4.45h-3.44V57.76h3.44A4.14,4.14,0,0,1,489.3,62.07Zm-6.18,2.86h1.8a2.8,2.8,0,0,0,0-5.6h-1.8Z" fill="#fff"/></svg>